<svg width="28" height="29" viewBox="0 0 28 29" fill="none" xmlns="http://www.w3.org/2000/svg">
<path d="M25.4399 12.2151H24.5002V12.1666H14.0002V16.8333H20.5936C19.6317 19.5499 17.0469 21.5 14.0002 21.5C10.1344 21.5 7.00016 18.3657 7.00016 14.5C7.00016 10.6342 10.1344 7.49998 14.0002 7.49998C15.7846 7.49998 17.408 8.17315 18.6441 9.27273L21.944 5.97281C19.8603 4.0309 17.0732 2.83331 14.0002 2.83331C7.55725 2.83331 2.3335 8.05706 2.3335 14.5C2.3335 20.9429 7.55725 26.1666 14.0002 26.1666C20.4431 26.1666 25.6668 20.9429 25.6668 14.5C25.6668 13.7177 25.5863 12.9541 25.4399 12.2151Z" fill="#FFC107"/>
<path d="M3.67871 9.06973L7.51179 11.8808C8.54896 9.31298 11.0608 7.49998 14.0002 7.49998C15.7846 7.49998 17.408 8.17315 18.6441 9.27273L21.944 5.97281C19.8604 4.0309 17.0732 2.83331 14.0002 2.83331C9.51904 2.83331 5.63288 5.36323 3.67871 9.06973Z" fill="#FF3D00"/>
<path d="M14 26.1667C17.0135 26.1667 19.7517 25.0134 21.8219 23.138L18.2111 20.0825C17.0004 21.0033 15.521 21.5012 14 21.5C10.9655 21.5 8.38894 19.5651 7.41827 16.8649L3.61377 19.7961C5.5446 23.5744 9.46577 26.1667 14 26.1667Z" fill="#4CAF50"/>
<path d="M25.4398 12.2151H24.5V12.1667H14V16.8334H20.5934C20.1333 18.1263 19.3045 19.256 18.2093 20.0831L18.2111 20.0819L21.8219 23.1374C21.5664 23.3696 25.6667 20.3334 25.6667 14.5C25.6667 13.7178 25.5862 12.9542 25.4398 12.2151Z" fill="#1976D2"/>
</svg>
