<svg width="71" height="29" viewBox="0 0 71 29" fill="none" xmlns="http://www.w3.org/2000/svg">
<path d="M33.581 14.1794V22.3871H30.959V2.11776H37.9129C38.743 2.10054 39.5682 2.24673 40.3411 2.54791C41.114 2.84909 41.8191 3.29928 42.4159 3.87251C43.0186 4.41093 43.4983 5.07125 43.8228 5.80909C44.1472 6.54693 44.3089 7.34519 44.2968 8.15022C44.3141 8.95955 44.1549 9.76302 43.8303 10.5056C43.5056 11.2481 43.0231 11.9121 42.4159 12.4522C41.1999 13.6037 39.6989 14.1789 37.9129 14.1778H33.581V14.1794ZM33.581 4.61322V11.6888H37.978C38.4601 11.703 38.9398 11.6171 39.3865 11.4367C39.8333 11.2562 40.2371 10.9852 40.5723 10.6408C40.9058 10.3189 41.1708 9.93382 41.3518 9.50839C41.5328 9.08296 41.6261 8.62581 41.6261 8.16396C41.6261 7.70212 41.5328 7.24497 41.3518 6.81954C41.1708 6.39411 40.9058 6.00904 40.5723 5.6871C40.2413 5.33551 39.8389 5.05781 39.3916 4.87239C38.9444 4.68697 38.4625 4.59808 37.978 4.6116H33.581V4.61322Z" fill="#5F6368"/>
<path d="M50.3379 8.0661C52.2759 8.0661 53.8057 8.5804 54.9272 9.60899C56.0487 10.6376 56.6089 12.0478 56.6079 13.8398V22.3871H54.0999V20.4626H53.9859C52.9002 22.0475 51.4562 22.84 49.6539 22.84C48.1155 22.84 46.8284 22.3871 45.7926 21.4815C45.2956 21.0658 44.8982 20.5452 44.6294 19.9576C44.3606 19.3701 44.2272 18.7304 44.239 18.0852C44.239 16.6501 44.7851 15.5088 45.8773 14.6614C46.9695 13.8139 48.4276 13.3891 50.2516 13.387C51.8085 13.387 53.0907 13.67 54.0983 14.236V13.6409C54.1012 13.201 54.0056 12.766 53.8183 12.3674C53.6309 11.9688 53.3567 11.6165 53.0153 11.3362C52.3219 10.715 51.4183 10.376 50.4845 10.3869C49.0199 10.3869 47.8609 11.0004 47.0075 12.2274L44.6982 10.7831C45.9685 8.97178 47.8484 8.0661 50.3379 8.0661ZM46.9456 18.1418C46.9439 18.4732 47.0219 18.8002 47.1732 19.0955C47.3244 19.3909 47.5446 19.6461 47.8153 19.8399C48.3952 20.2929 49.1149 20.5329 49.8526 20.5192C50.959 20.5173 52.0196 20.08 52.8019 19.303C53.6705 18.4911 54.1048 17.5385 54.1048 16.4452C53.2872 15.7983 52.1472 15.4749 50.6848 15.4749C49.6197 15.4749 48.7316 15.7299 48.0205 16.2398C47.3023 16.7574 46.9456 17.3865 46.9456 18.1418Z" fill="#5F6368"/>
<path d="M71.0049 8.51892L62.2498 28.5004H59.5431L62.7921 21.5089L57.0352 8.51892H59.8851L64.0461 18.4814H64.1031L68.15 8.51892H71.0049Z" fill="#5F6368"/>
<path d="M22.9844 12.4101C22.9854 11.6166 22.9178 10.8245 22.7825 10.0424H11.7246V14.5271H18.058C17.9284 15.2434 17.6541 15.9262 17.2517 16.5344C16.8492 17.1425 16.3269 17.6635 15.7162 18.0658V20.9769H19.4961C21.7093 18.9504 22.9844 15.9536 22.9844 12.4101Z" fill="#4285F4"/>
<path d="M11.7245 23.7893C14.8888 23.7893 17.5531 22.7575 19.496 20.9785L15.7161 18.0674C14.6641 18.7758 13.3091 19.1801 11.7245 19.1801C8.6661 19.1801 6.07019 17.1326 5.14192 14.3735H1.24805V17.3736C2.22398 19.3022 3.72048 20.9234 5.57045 22.0563C7.42043 23.1892 9.55108 23.7892 11.7245 23.7893Z" fill="#34A853"/>
<path d="M5.14243 14.3735C4.65169 12.9277 4.65169 11.362 5.14243 9.91626V6.9162H1.24857C0.427573 8.53858 0 10.3291 0 12.1449C0 13.9606 0.427573 15.7512 1.24857 17.3735L5.14243 14.3735Z" fill="#FBBC04"/>
<path d="M11.7245 5.10971C13.3967 5.08258 15.0125 5.71001 16.2226 6.85638L19.5693 3.53286C17.4471 1.55343 14.6358 0.466691 11.7245 0.500459C9.55108 0.500557 7.42043 1.10056 5.57045 2.23348C3.72048 3.3664 2.22398 4.98764 1.24805 6.91622L5.14192 9.91627C6.07019 7.15719 8.6661 5.10971 11.7245 5.10971Z" fill="#EA4335"/>
</svg>
