<svg width="78" height="19" viewBox="0 0 78 19" fill="none" xmlns="http://www.w3.org/2000/svg">
<path d="M29.4008 8.1499C29.2008 9.6499 28.0008 9.6499 26.9008 9.6499H26.3008L26.8008 6.7499C26.8008 6.5499 27.0008 6.4499 27.2008 6.4499H27.5008C28.3008 6.4499 29.0008 6.4499 29.4008 6.8499C29.4008 7.2499 29.4008 7.6499 29.4008 8.1499ZM28.9008 4.1499H24.6008C24.3008 4.1499 24.1008 4.3499 24.0008 4.6499L22.3008 15.6499C22.3008 15.8499 22.4008 16.0499 22.7008 16.0499H24.7008C25.0008 16.0499 25.2008 15.8499 25.3008 15.5499L25.8008 12.5499C25.8008 12.2499 26.1008 12.0499 26.4008 12.0499H27.8008C30.6008 12.0499 32.2008 10.6499 32.7008 7.9499C32.9008 6.7499 32.7008 5.8499 32.2008 5.1499C31.4008 4.5499 30.3008 4.1499 28.9008 4.1499Z" fill="#263577"/>
<path d="M38.8003 12.15C38.6003 13.35 37.7003 14.15 36.5003 14.15C35.9003 14.15 35.4003 13.95 35.1003 13.55C34.8003 13.15 34.7003 12.65 34.8003 12.15C35.0003 10.95 35.9003 10.15 37.1003 10.15C37.7003 10.15 38.2003 10.35 38.5003 10.75C38.7003 11.05 38.9003 11.55 38.8003 12.15ZM41.6003 8.14995H39.6003C39.4003 8.14995 39.3003 8.24995 39.2003 8.44995L39.1003 9.04995L39.0003 8.84995C38.6003 8.24995 37.6003 7.94995 36.6003 7.94995C34.3003 7.94995 32.4003 9.64995 32.0003 12.05C31.8003 13.25 32.1003 14.35 32.8003 15.15C33.4003 15.85 34.3003 16.15 35.4003 16.15C37.2003 16.15 38.2003 14.95 38.2003 14.95L38.1003 15.55C38.1003 15.75 38.2003 15.95 38.5003 15.95H40.3003C40.6003 15.95 40.8003 15.75 40.9003 15.45L42.0003 8.44995C42.0003 8.34995 41.9003 8.14995 41.6003 8.14995Z" fill="#263577"/>
<path d="M52.4993 8.1499H50.3993C50.1993 8.1499 49.9992 8.2499 49.8993 8.4499L47.0993 12.6499L45.8992 8.6499C45.7992 8.3499 45.5992 8.2499 45.2992 8.2499H43.2992C43.0992 8.2499 42.8993 8.4499 42.9993 8.7499L45.2992 15.3499L43.1992 18.3499C42.9992 18.5499 43.1993 18.9499 43.4993 18.9499H45.5993C45.7993 18.9499 45.9993 18.8499 46.0993 18.6499L52.8993 8.7499C52.9993 8.4499 52.7993 8.1499 52.4993 8.1499Z" fill="#263577"/>
<path d="M59.7992 8.1499C59.5992 9.6499 58.3992 9.6499 57.2992 9.6499H56.6992L57.1992 6.7499C57.1992 6.5499 57.3992 6.4499 57.5992 6.4499H57.8992C58.6992 6.4499 59.3992 6.4499 59.7992 6.8499C59.8992 7.2499 59.8992 7.6499 59.7992 8.1499ZM59.2992 4.1499H54.9992C54.6992 4.1499 54.4992 4.3499 54.3992 4.6499L52.6992 15.6499C52.6992 15.8499 52.7992 16.0499 53.0992 16.0499H55.2992C55.4992 16.0499 55.6992 15.9499 55.6992 15.6499L56.1992 12.5499C56.1992 12.2499 56.4992 12.0499 56.7992 12.0499H58.1992C60.9992 12.0499 62.5992 10.6499 63.0992 7.9499C63.2992 6.7499 63.0992 5.8499 62.5992 5.1499C61.8992 4.5499 60.7992 4.1499 59.2992 4.1499Z" fill="#2199D6"/>
<path d="M69.3003 12.15C69.1003 13.35 68.2003 14.15 67.0003 14.15C66.4003 14.15 65.9003 13.95 65.6003 13.55C65.3003 13.15 65.2003 12.65 65.3003 12.15C65.5003 10.95 66.4003 10.15 67.6003 10.15C68.2003 10.15 68.7003 10.35 69.0003 10.75C69.2003 11.05 69.4003 11.55 69.3003 12.15ZM72.1003 8.14995H70.1003C69.9003 8.14995 69.8003 8.24995 69.7003 8.44995L69.6003 9.04995L69.5003 8.84995C69.1003 8.24995 68.1003 7.94995 67.1003 7.94995C64.8003 7.94995 62.9003 9.64995 62.5003 12.05C62.3003 13.25 62.6003 14.35 63.3003 15.15C63.9003 15.85 64.8003 16.15 65.9003 16.15C67.7003 16.15 68.7003 14.95 68.7003 14.95L68.6003 15.55C68.6003 15.75 68.7003 15.95 69.0003 15.95H70.8003C71.1003 15.95 71.3003 15.75 71.4003 15.45L72.5003 8.44995C72.5003 8.34995 72.3003 8.14995 72.1003 8.14995Z" fill="#2199D6"/>
<path d="M74.4992 4.4499L72.6992 15.6499C72.6992 15.8499 72.7992 16.0499 73.0992 16.0499H74.8992C75.1992 16.0499 75.3992 15.8499 75.4992 15.5499L77.1992 4.5499C77.1992 4.3499 77.0992 4.1499 76.7992 4.1499H74.7992C74.6992 4.1499 74.5992 4.3499 74.4992 4.4499Z" fill="#2199D6"/>
<path d="M4.49962 18.1499L4.79961 16.0499H4.09961H0.599609L2.99962 0.749901C2.99962 0.749901 2.99961 0.649902 3.09961 0.649902H3.19962H9.09961C10.9996 0.649902 12.3996 1.0499 13.0996 1.8499C13.3996 2.2499 13.5996 2.6499 13.6996 3.0499C13.7996 3.5499 13.7996 4.0499 13.6996 4.7499V5.1499L13.9996 5.3499C14.2996 5.4499 14.4996 5.6499 14.6996 5.8499C14.9996 6.1499 15.1996 6.5499 15.1996 7.0499C15.2996 7.5499 15.2996 8.1499 15.0996 8.8499C14.8996 9.6499 14.6996 10.2499 14.3996 10.8499C14.0996 11.3499 13.6996 11.7499 13.2996 12.1499C12.8996 12.4499 12.2996 12.6499 11.7996 12.8499C11.1996 12.9499 10.5996 13.0499 9.89961 13.0499H9.39961C9.09961 13.0499 8.79962 13.1499 8.49962 13.3499C8.29962 13.5499 8.09962 13.8499 7.99962 14.1499V14.3499L7.39961 18.0499V18.1499V18.2499C7.39961 18.2499 7.39961 18.2499 7.29961 18.2499H4.49962V18.1499Z" fill="#263577"/>
<path d="M14.4004 4.74994C14.4004 4.84994 14.4004 4.94994 14.3004 5.04994C13.5004 9.04994 10.9004 10.3499 7.5004 10.3499H5.80038C5.40038 10.3499 5.0004 10.6499 5.0004 11.0499L4.10039 16.6499L3.90039 18.2499C3.90039 18.5499 4.10038 18.7499 4.30038 18.7499H7.40039C7.80039 18.7499 8.10039 18.4499 8.10039 18.1499V17.9499L8.70039 14.3499V14.1499C8.80039 13.7499 9.10039 13.5499 9.40039 13.5499H9.90039C12.9004 13.5499 15.2004 12.3499 15.8004 8.84994C16.1004 7.34994 15.9004 6.14994 15.2004 5.34994C15.0004 5.14994 14.7004 4.94994 14.4004 4.74994Z" fill="#2199D6"/>
<path d="M13.6 4.4499C13.5 4.4499 13.4 4.3499 13.2 4.3499C13.1 4.3499 12.9 4.2499 12.8 4.2499C12.3 4.1499 11.8 4.1499 11.3 4.1499H6.7C6.6 4.1499 6.49999 4.1499 6.39999 4.2499C6.19999 4.3499 6 4.5499 6 4.7499L5 10.9499V11.1499C5.1 10.7499 5.39999 10.4499 5.79999 10.4499H7.5C10.9 10.4499 13.5 9.0499 14.3 5.1499C14.3 5.0499 14.3 4.9499 14.4 4.8499C14.2 4.7499 14 4.6499 13.8 4.5499C13.7 4.4499 13.6 4.4499 13.6 4.4499Z" fill="#252C5E"/>
<path d="M6 4.74992C6 4.54992 6.19999 4.34992 6.39999 4.24992C6.49999 4.24992 6.6 4.14993 6.7 4.14993H11.3C11.8 4.14993 12.4 4.14992 12.8 4.24992C12.9 4.24992 13.1 4.24993 13.2 4.34993C13.3 4.34993 13.4 4.44992 13.6 4.44992C13.7 4.44992 13.7 4.44993 13.8 4.54993C14 4.64993 14.2 4.74993 14.4 4.84993C14.6 3.34993 14.4 2.34992 13.6 1.44992C12.7 0.449924 11.1 0.0499268 9.09999 0.0499268H3.2C2.8 0.0499268 2.39999 0.349924 2.39999 0.749924L0 16.1499C0 16.4499 0.2 16.7499 0.5 16.7499H4.09999L5 10.9499L6 4.74992Z" fill="#263577"/>
</svg>
