<svg width="69" height="21" viewBox="0 0 69 21" fill="none" xmlns="http://www.w3.org/2000/svg">
<path d="M63.8004 0.299988H59.5004C58.2004 0.299988 57.2004 0.699988 56.6004 1.99999L48.4004 20.7H54.2004C54.2004 20.7 55.2004 18.2 55.4004 17.6C56.0004 17.6 61.7004 17.6 62.5004 17.6C62.7004 18.3 63.2004 20.6 63.2004 20.6H68.4004L63.8004 0.299988ZM57.0004 13.4C57.5004 12.2 59.2004 7.69999 59.2004 7.69999C59.2004 7.79999 59.7004 6.49999 59.9004 5.79999L60.3004 7.59999C60.3004 7.59999 61.4004 12.5 61.6004 13.5H57.0004V13.4Z" fill="#3362AB"/>
<path d="M48.8004 14C48.8004 18.2 45.0004 21 39.1004 21C36.6004 21 34.2004 20.5 32.9004 19.9L33.7004 15.3L34.4004 15.6C36.2004 16.4 37.4004 16.7 39.6004 16.7C41.2004 16.7 42.9004 16.1 42.9004 14.7C42.9004 13.8 42.2004 13.2 40.0004 12.2C37.9004 11.2 35.1004 9.6 35.1004 6.7C35.1004 2.7 39.0004 0 44.5004 0C46.6004 0 48.4004 0.4 49.5004 0.9L48.7004 5.3L48.3004 4.9C47.3004 4.5 46.0004 4.1 44.1004 4.1C42.0004 4.2 41.0004 5.1 41.0004 5.9C41.0004 6.8 42.2004 7.5 44.1004 8.4C47.3004 9.9 48.8004 11.6 48.8004 14Z" fill="#3362AB"/>
<path d="M0 0.499976L0.1 0.0999756H8.7C9.9 0.0999756 10.8 0.499976 11.1 1.79998L13 10.8C11.1 5.99998 6.7 2.09998 0 0.499976Z" fill="#F9B50B"/>
<path d="M25.1 0.300012L16.4 20.6H10.5L5.5 3.60001C9.1 5.90001 12.1 9.50001 13.2 12L13.8 14.1L19.2 0.200012H25.1V0.300012Z" fill="#3362AB"/>
<path d="M27.4004 0.200012H32.9004L29.4004 20.6H23.9004L27.4004 0.200012Z" fill="#3362AB"/>
</svg>
